<svg version="1.2" xmlns="http://www.w3.org/2000/svg" viewBox="0 0 47 42" width="47" height="42"><defs><filter x="-50%" y="-50%" width="200%" height="200%" id="f1" ><feDropShadow dx="0.4999999999999998" dy="0.8660254037844387" stdDeviation="0.8333333333333334" flood-color="#010101" flood-opacity=".5"/></filter></defs><style>.a{fill:#aab33c}.b{filter:url(#f1);fill:#fff}</style><path class="a" d="m3 0h44v42h-44c-1.7 0-3-1.3-3-3v-36c0-1.7 1.3-3 3-3z"/><path fill-rule="evenodd" class="b" d="m29.6 25.8c0-2-0.5-5.1-3.1-5.1-0.3 0-1.5 1.3-3.2 1.3-1.8 0-2.9-1.3-3.2-1.3-2.6 0-3.1 3.1-3.1 5.1 0 1.5 1 2.3 2.4 2.3h7.8c1.4 0 2.4-0.8 2.4-2.3zm-2.9-7.9c0-1.9-1.5-3.5-3.4-3.5-1.9 0-3.4 1.6-3.4 3.5 0 1.9 1.5 3.4 3.4 3.4 1.9 0 3.4-1.5 3.4-3.4z"/></svg>