<svg version="1.2" xmlns="http://www.w3.org/2000/svg" viewBox="0 0 14 20" width="14" height="20"><style>.a{fill:#aab33c}</style><path fill-rule="evenodd" class="a" d="m7 0c3.8 0 7 3.2 7 7 0 1.3-0.4 2.5-1 3.6l-5.4 9.1c-0.1 0.2-0.3 0.3-0.5 0.3q0 0 0 0c-0.2 0-0.4-0.1-0.5-0.3l-5.6-9c-0.7-1.1-1-2.4-1-3.7 0-3.8 3.1-7 7-7zm5 10c0.5-0.9 0.8-1.9 0.8-3 0-3.2-2.6-5.8-5.8-5.8-3.2 0-5.9 2.6-5.9 5.8 0 1.1 0.3 2.2 0.9 3.1l5.1 8.2zm-5-6.5c1.9 0 3.5 1.5 3.5 3.5 0 1.9-1.6 3.5-3.5 3.5-2 0-3.5-1.6-3.5-3.5 0-2 1.5-3.5 3.5-3.5zm0 5.8c1.3 0 2.3-1 2.3-2.3 0-1.3-1.1-2.4-2.3-2.4-1.3 0-2.4 1.1-2.4 2.4 0 1.3 1.1 2.3 2.4 2.3z"/></svg>