<svg version="1.2" xmlns="http://www.w3.org/2000/svg" viewBox="0 0 18 12" width="18" height="12"><style>.a{fill:#aab33c}</style><path fill-rule="evenodd" class="a" d="m15.6 0.8h-12.8c-1.2 0-2.1 0.9-2.1 2.1v6.8c0 1.2 0.9 2.1 2.1 2.1h12.8c1.1 0 2.1-0.9 2.1-2.1v-6.8c0-1.2-1-2.1-2.1-2.1zm-13.9 2.7l3.8 2.8-3.8 2.8zm14.9 6.2c0 0.5-0.4 1-1 1h-12.8c-0.6 0-1.1-0.5-1.1-1l4.2-3.1 2.3 1.7q0.5 0.3 1 0.3 0.5 0 0.9-0.3l2.4-1.7zm0-0.7l-3.8-2.8 3.8-2.7zm-6.8-1.1q-0.3 0.2-0.7 0.2-0.3 0-0.6-0.2l-2.2-1.7-4.6-3.4c0-0.6 0.4-1.1 1-1.1h12.8c0.6 0 1.1 0.5 1.1 1.1zm0 0"/></svg>