<svg version="1.2" xmlns="http://www.w3.org/2000/svg" viewBox="0 0 47 42" width="47" height="42"><style>.a{fill:#aab33c}.b{fill:#fff}</style><path class="a" d="m3 0h44v42h-44c-1.7 0-3-1.3-3-3v-36c0-1.7 1.3-3 3-3z"/><path fill-rule="evenodd" class="b" d="m30.9 25.7c0 0.2-0.2 0.3-0.3 0.3h-13.2c-0.1 0-0.3-0.1-0.3-0.3v-6.8q0.3 0.3 0.7 0.5 1.9 1.5 3.8 3.1c0.6 0.5 1.5 1.2 2.4 1.2 0.9 0 1.8-0.7 2.4-1.2q1.9-1.6 3.8-3.1 0.4-0.2 0.7-0.5zm0-9.4c0 0.7-0.8 1.7-1.4 2.2q-1.8 1.4-3.5 2.8c-0.5 0.4-1.4 1.2-2 1.2-0.6 0-1.5-0.8-2-1.2q-1.7-1.4-3.5-2.8c-0.8-0.7-1.4-1.5-1.4-2.6 0-0.1 0.2-0.2 0.3-0.2h13.2c0.3 0 0.3 0.4 0.3 0.6zm1.1-0.4c0-0.7-0.6-1.4-1.4-1.4h-13.2c-0.8 0-1.4 0.7-1.4 1.4v9.8c0 0.7 0.6 1.4 1.4 1.4h13.2c0.8 0 1.4-0.7 1.4-1.4z"/></svg>