<svg version="1.2" xmlns="http://www.w3.org/2000/svg" viewBox="0 0 47 42" width="47" height="42"><defs><filter x="-50%" y="-50%" width="200%" height="200%" id="f1" ><feDropShadow dx="0.4999999999999998" dy="0.8660254037844387" stdDeviation="0.8333333333333334" flood-color="#010101" flood-opacity=".5"/></filter></defs><style>.a{fill:#aab33c}.b{filter:url(#f1);fill:#fff}</style><path class="a" d="m3 0h44v42h-44c-1.7 0-3-1.3-3-3v-36c0-1.7 1.3-3 3-3z"/><path class="b" d="m32 20.3c0-3.2-3.6-5.7-8-5.7-4.4 0-8 2.5-8 5.7 0 1.8 1.2 3.4 3 4.5-0.4 1.4-1 2-1.6 2.6-0.1 0.2-0.3 0.3-0.2 0.5q0 0 0 0c0 0.3 0.2 0.4 0.4 0.4q0.5-0.1 1-0.2c1.5-0.4 2.9-1.1 4.1-2.2q0.6 0.1 1.3 0.1c4.4 0 8-2.6 8-5.7z"/></svg>