<svg version="1.2" xmlns="http://www.w3.org/2000/svg" viewBox="0 0 47 42" width="47" height="42"><defs><filter x="-50%" y="-50%" width="200%" height="200%" id="f1" ><feDropShadow dx="0.4999999999999998" dy="0.8660254037844387" stdDeviation="0.8333333333333334" flood-color="#010101" flood-opacity=".5"/></filter></defs><style>.a{fill:#a9b33b}.b{filter:url(#f1);fill:#fff}</style><path class="a" d="m3 0h44v42h-44c-1.7 0-3-1.3-3-3v-36c0-1.7 1.3-3 3-3z"/><path fill-rule="evenodd" class="b" d="m28.9 23.6c0 0.2-0.2 0.7-0.3 1-0.3 0.6-1.5 1.1-2.2 1.1-0.7 0-1.3-0.3-1.9-0.5-2.2-0.8-4.6-3.2-5.4-5.4-0.3-0.6-0.5-1.2-0.5-1.9 0-0.7 0.5-1.9 1.1-2.2 0.3-0.1 0.8-0.3 1-0.3q0.1 0 0.2 0.1c0.2 0 0.9 1.5 1.1 1.8 0.1 0.2 0.3 0.4 0.3 0.6 0 0.5-1.3 1.1-1.3 1.5 0 0.2 0.2 0.4 0.3 0.6 0.7 1.4 1.6 2.3 3 3 0.1 0.1 0.4 0.3 0.6 0.3 0.4 0 1-1.3 1.5-1.3 0.2 0 0.4 0.2 0.6 0.3 0.3 0.2 1.8 0.9 1.8 1.1q0.1 0.1 0.1 0.2zm2.5-7.8c0-1.6-1.3-2.9-2.9-2.9h-9.6c-1.6 0-2.9 1.3-2.9 2.9v9.6c0 1.6 1.3 2.9 2.9 2.9h9.6c1.6 0 2.9-1.3 2.9-2.9z"/></svg>