<svg version="1.2" xmlns="http://www.w3.org/2000/svg" viewBox="0 0 17 17" width="17" height="17"><style>.a{fill:#aab33c}</style><path fill-rule="evenodd" class="a" d="m15.4 12.5q0.6 0.5 0.6 1.2 0 0.7-0.6 1.3-0.2 0.2-0.4 0.4-0.4 0.3-0.7 0.7 0 0 0 0-0.8 0.9-2.1 0.9-0.1 0-0.2 0c-1.2-0.1-2.3-0.6-3.2-1-2.1-1-4-2.5-5.6-4.4-1.3-1.5-2.2-3-2.8-4.5-0.2-0.7-0.5-1.6-0.4-2.7q0.1-1 0.8-1.7l1.2-1.2q0 0 0 0 0.6-0.5 1.2-0.5 0.7 0 1.2 0.5 0.4 0.3 0.7 0.7 0.2 0.1 0.3 0.3l1 1c0.8 0.7 0.8 1.7 0 2.5q-0.1 0.1-0.3 0.3-0.4 0.4-0.8 0.8c0.2 0.5 0.5 1 1 1.5 0.9 1.2 1.9 2 2.9 2.7q0.2 0.1 0.4 0.2 0.1 0.1 0.3 0.1l1.1-1.1q0.6-0.5 1.2-0.5 0.7 0 1.2 0.5zm-0.6 1.8q0.5-0.6 0-1.1l-2-2q0 0 0 0c-0.1-0.1-0.3-0.2-0.6-0.2-0.2 0-0.4 0.1-0.5 0.2l-1.2 1.2c-0.1 0.1-0.3 0.3-0.6 0.3q-0.2 0-0.3-0.1-0.1 0-0.1 0-0.1-0.1-0.3-0.2-0.3-0.1-0.5-0.3c-1.1-0.7-2.2-1.6-3.2-2.8v-0.1c-0.5-0.6-0.9-1.2-1.1-1.8q0-0.1-0.1-0.1c0-0.2-0.1-0.5 0.2-0.8q0 0 0.1 0 0.4-0.4 0.9-0.9 0.1-0.1 0.3-0.3 0.5-0.5 0-1.1l-1-1q-0.2-0.2-0.4-0.3-0.3-0.4-0.6-0.7 0 0 0 0c-0.1-0.1-0.3-0.2-0.5-0.2q-0.3 0-0.6 0.2l-1.2 1.2q-0.5 0.5-0.5 1.1c-0.1 0.7 0.1 1.4 0.4 2.3 0.5 1.4 1.4 2.8 2.6 4.3 1.5 1.7 3.3 3.1 5.3 4.1 0.7 0.4 1.7 0.8 2.8 0.8q0.1 0 0.2 0c0.5 0 1-0.1 1.3-0.5q0.4-0.4 0.7-0.7 0.3-0.3 0.5-0.5zm-5.6-10.2c-0.3-0.1-0.4-0.3-0.4-0.6 0.1-0.3 0.3-0.4 0.6-0.4 1.1 0.2 2.2 0.7 3 1.6 0.8 0.8 1.3 1.8 1.5 2.9 0.1 0.3-0.1 0.6-0.4 0.6q0 0 0 0c-0.3 0-0.5-0.1-0.5-0.4-0.2-0.9-0.6-1.8-1.3-2.5-0.7-0.6-1.5-1.1-2.5-1.2zm7.8 3.4c0.1 0.3-0.1 0.5-0.4 0.6q0 0 0 0c-0.3 0-0.5-0.2-0.5-0.4-0.3-1.7-1.1-3.2-2.3-4.4-1.2-1.3-2.8-2-4.4-2.3-0.3-0.1-0.5-0.3-0.4-0.6 0-0.2 0.2-0.4 0.5-0.4 1.9 0.3 3.6 1.2 5 2.6 1.3 1.3 2.2 3 2.5 4.9z"/></svg>