<svg version="1.2" xmlns="http://www.w3.org/2000/svg" viewBox="0 0 75 75" width="75" height="75"><style>.a{fill:#aab33c}.b{fill:#fff}</style><path class="a" d="m0 0h74.1v74.1h-74.1z"/><path fill-rule="evenodd" class="b" d="m27.3 35.7q0.1 0.1 0.1 0.2-0.2 1-0.2 2.1c0 0.1 0 0.2-0.2 0.3q-1 0.4-1.9 0.8-0.6 0.3-1.2 0.5h-0.1c-0.1 0.1-0.1 0.3 0 0.5q0.5 1.5 0.9 2.9c0.1 0.3 0.4 0.4 0.6 0.3q0.5-0.1 0.9-0.2 1.1-0.2 2.2-0.4c0.2-0.1 0.3 0 0.4 0.2q0.6 0.7 1.3 1.4c0.1 0.1 0.1 0.2 0.1 0.4q-0.7 1.5-1.3 3.1 0 0.1 0 0.1c0 0.1 0.1 0.2 0.3 0.3q1.4 0.7 2.7 1.4c0.3 0.2 0.5 0.1 0.7-0.1q0.1-0.3 0.3-0.5 0.7-1.1 1.4-2.3c0.1-0.1 0.2-0.1 0.3-0.1q1 0.1 2.1 0.2c0.1 0 0.2 0 0.3 0.2q0.4 0.9 0.8 1.9 0.2 0.5 0.4 1c0.1 0.2 0.4 0.4 0.6 0.3q1.4-0.5 2.9-1c0.2 0 0.3-0.3 0.3-0.5l-0.2-1.1q-0.2-1.1-0.5-2.1c0-0.1 0-0.2 0.1-0.3q0.8-0.6 1.6-1.3c0.1-0.1 0.2-0.1 0.3-0.1q1.7 0.6 3.3 1.3h0.1c0 0 0.1-0.2 0.2-0.4q0.3-0.4 0.5-0.8 0.5-1.1 1-2.1c0.1-0.2 0.1-0.2-0.1-0.3q-1.4-0.9-2.9-1.8c-0.1-0.1-0.1-0.2-0.1-0.3q0.2-1 0.2-2.1 0-0.2 0.1-0.3 1.1-0.4 2.3-1l0.7-0.3c0.2-0.1 0.3-0.3 0.2-0.6q-0.4-1.4-0.9-2.8c-0.1-0.3-0.4-0.4-0.6-0.4q-0.2 0.1-0.5 0.1l-2.5 0.7c-0.2 0-0.3 0-0.4-0.2q-0.6-0.9-1.4-1.5c-0.1-0.1-0.1-0.2 0-0.3l1.2-3.3c0.1-0.1 0.1-0.2 0-0.2q-1.7-0.9-3.3-1.7 0 0 0 0c-0.1 0-0.1 0-0.2 0.1l-0.1 0.2-1.8 2.8c0 0.1-0.1 0.1-0.3 0.1q-1-0.2-2-0.2c-0.2 0-0.2 0-0.3-0.1q-0.5-1.2-1-2.3-0.2-0.3-0.3-0.7c-0.1-0.2-0.4-0.3-0.6-0.2q-1.4 0.4-2.9 0.9c-0.2 0.1-0.4 0.3-0.3 0.6q0 0.2 0.1 0.5 0.3 1.2 0.6 2.5c0.1 0.2 0 0.3-0.1 0.4q-0.9 0.6-1.5 1.3c-0.2 0.2-0.3 0.2-0.4 0.1q-1.6-0.6-3.2-1.3-0.1 0-0.1 0-0.1 0-0.2 0.1v0.1q-0.8 1.5-1.6 3.1c-0.1 0.1 0 0.2 0.1 0.3q1.5 0.9 3 1.9zm12.4 0.6c0.7 2.2-0.4 4.2-2.3 4.8-1.8 0.6-3.7-0.3-4.5-2-0.1-0.2-0.2-0.6-0.3-0.8-0.3-1.6 0.8-3.6 2.4-4.1 1.7-0.5 4 0 4.7 2.1zm19.2-13.9q1.1-0.4 2.2-0.7l0.1-0.1c0.1 0 0.1-0.2 0-0.4q-0.1-1-0.3-1.9c-0.1-0.3-0.3-0.5-0.5-0.4h-0.4q-1 0.1-1.9 0.2c-0.1 0-0.2 0-0.2-0.1q-0.4-0.7-0.8-1.3c-0.1-0.1-0.1-0.1-0.1-0.3q0.6-1 1.1-2.1c0.1-0.2 0.1-0.2-0.1-0.3q-1-0.7-2-1.3 0 0-0.1 0c0-0.1-0.1-0.1-0.2 0v0.1q-0.8 0.9-1.5 1.9c-0.1 0.1-0.1 0.1-0.2 0.1q-0.8-0.2-1.5-0.3c-0.1-0.1-0.2-0.1-0.3-0.2q-0.3-1.2-0.6-2.4 0 0-0.1 0c0-0.1-0.2-0.1-0.4 0l-2 0.4c-0.2 0.1-0.4 0.3-0.4 0.5q0.1 0.5 0.1 1 0.1 0.6 0.1 1.2c0 0 0 0.1-0.1 0.2l-1.1 0.9c-0.1 0.1-0.2 0.1-0.3 0q-1.1-0.5-2.2-1.1c-0.1-0.1-0.2-0.1-0.3 0.1q-0.6 1-1.3 2c-0.1 0.2-0.1 0.2 0.1 0.3l1.8 1.5c0.1 0.1 0.2 0.2 0.1 0.3q-0.1 0.7-0.2 1.4c0 0.2-0.1 0.2-0.2 0.3q-1.2 0.3-2.4 0.7-0.1 0-0.1 0c0 0 0 0.2 0 0.5q0.2 0.9 0.5 1.9c0 0.3 0.2 0.5 0.4 0.4h0.4q0.9-0.1 1.9-0.2 0.2 0 0.2 0.1 0.4 0.6 0.8 1.2c0.1 0.1 0.1 0.2 0.1 0.3q-0.6 1.1-1.1 2.1 0 0.1-0.1 0.1c0 0.1 0.1 0.2 0.2 0.3l0.3 0.2q0.8 0.5 1.7 1c0.1 0.1 0.2 0.1 0.3 0l1.6-1.9c0.1-0.1 0.1-0.1 0.3-0.1q0.6 0.1 1.3 0.2c0.1 0.1 0.2 0.1 0.2 0.2q0.4 1.2 0.8 2.3v0.2c0.1 0 0.3 0 0.5 0l1.9-0.5c0.2 0 0.4-0.3 0.4-0.5l-0.1-0.9q-0.1-0.6-0.1-1.2-0.1-0.2 0.1-0.3 0.6-0.4 1.2-0.8 0.2-0.1 0.3 0l2 1q0.1 0.1 0.2 0.1c0 0.1 0.2-0.1 0.3-0.3q0.6-0.8 1.1-1.7c0.2-0.2 0.2-0.4 0.2-0.4q0-0.1-0.1-0.1-1-0.8-1.9-1.5c-0.1-0.1-0.1-0.2-0.1-0.3q0.2-0.7 0.3-1.4 0-0.1 0.2-0.2zm-6.1 2.3c-1.5 0.5-3-0.5-3.3-1.7-0.5-1.5 0.3-3.1 1.9-3.5 1.2-0.3 2.8 0.5 3.2 1.8 0.5 1.7-0.6 3-1.8 3.4zm-12.2 29.8q-2.7 0.9-5.5 0.9c-7.5 0-14.2-4.9-16.5-12.1-2.2-6.7-0.2-14 5.2-18.6l0.8-0.7c0.2-0.2 0.2-0.5 0.1-0.7l-2.4-3.1c-0.2-0.1-0.5-0.2-0.6 0l-1 0.8c-6.9 5.9-9.5 15.2-6.7 23.8 3 9.2 11.5 15.4 21.1 15.4q3.6 0 7-1.1 3.1-1.1 5.8-2.9l1-0.8c0.2-0.1 0.3-0.4 0.1-0.6l-2.4-3.1c-0.1-0.2-0.4-0.2-0.6-0.1l-0.9 0.7q-2.1 1.4-4.5 2.2z"/></svg>